<svg xmlns="http://www.w3.org/2000/svg" viewBox="0 0 1200 630">
  <defs>
    <linearGradient id="sky" x1="0" y1="0" x2="1" y2="1">
      <stop offset="0" stop-color="#041036" />
      <stop offset="1" stop-color="#12041f" />
    </linearGradient>
    <radialGradient id="ring-glow" cx="0.4" cy="0.3" r="0.65">
      <stop offset="0" stop-color="#5fa8ff" stop-opacity="0.9" />
      <stop offset="1" stop-color="#5fa8ff" stop-opacity="0" />
    </radialGradient>
  </defs>
  <rect width="1200" height="630" fill="url(#sky)" />
  <circle cx="420" cy="260" r="320" fill="url(#ring-glow)" opacity="0.7" />
  <g fill="none" stroke="#ffd54f" stroke-width="10" opacity="0.5">
    <circle cx="920" cy="170" r="86" />
    <path d="M160 520h880" stroke-linecap="round" />
    <path d="M220 460h760" stroke-linecap="round" opacity="0.6" />
  </g>
  <g transform="translate(860 360)">
    <circle cx="0" cy="0" r="120" fill="rgba(15,31,74,0.85)" stroke="#57a6ff" stroke-width="8" />
    <path d="M-90 10 C-40 -80 40 -90 100 -40 C60 -38 20 -8 72 40 C22 32 -26 44 -40 92 C-46 54 -60 28 -90 10 Z" fill="#1c5cff" opacity="0.85" />
    <path d="M-30 -70 L20 -120 L35 -60" fill="none" stroke="#ffd54f" stroke-width="8" stroke-linecap="round" />
  </g>
  <g font-family="'Chakra Petch', 'Inter', sans-serif" text-anchor="start">
    <text x="160" y="190" fill="#ffd54f" font-size="20" letter-spacing="0.6em">EGGNET SENTINEL DESK</text>
    <text x="160" y="280" fill="#f5f6ff" font-size="86" font-weight="700" letter-spacing="0.12em">EGGMAN COUNTER OPS</text>
    <text x="160" y="360" fill="#57a6ff" font-size="38" letter-spacing="0.18em">SCAN · DETAIN · SECURE</text>
    <text x="160" y="420" fill="rgba(245,246,255,0.8)" font-size="28" letter-spacing="0.04em">Intercept Resistance infiltrators before Sonic breaches the fleet.</text>
  </g>
</svg>
