<svg width="1200" height="630" xmlns="http://www.w3.org/2000/svg">
  <defs>
    <linearGradient id="titleGrad" x1="0%" y1="0%" x2="100%" y2="0%">
      <stop offset="0%" style="stop-color:#f39c12"/>
      <stop offset="50%" style="stop-color:#e74c3c"/>
      <stop offset="100%" style="stop-color:#9b59b6"/>
    </linearGradient>
    <filter id="glow" x="-50%" y="-50%" width="200%" height="200%">
      <feGaussianBlur stdDeviation="8" result="blur"/>
      <feMerge>
        <feMergeNode in="blur"/>
        <feMergeNode in="SourceGraphic"/>
      </feMerge>
    </filter>
  </defs>

  <!-- Background -->
  <rect width="1200" height="630" fill="#0d0d0d"/>
  <ellipse cx="600" cy="0" rx="800" ry="400" fill="#1a1a2e" opacity="0.6"/>
  <ellipse cx="1000" cy="630" rx="600" ry="400" fill="#16213e" opacity="0.4"/>

  <!-- Film strips -->
  <rect x="0" y="0" width="1200" height="40" fill="#111"/>
  <g fill="#222">
    <rect x="20" y="8" width="30" height="24"/>
    <rect x="70" y="8" width="30" height="24"/>
    <rect x="120" y="8" width="30" height="24"/>
    <rect x="170" y="8" width="30" height="24"/>
    <rect x="220" y="8" width="30" height="24"/>
    <rect x="270" y="8" width="30" height="24"/>
    <rect x="870" y="8" width="30" height="24"/>
    <rect x="920" y="8" width="30" height="24"/>
    <rect x="970" y="8" width="30" height="24"/>
    <rect x="1020" y="8" width="30" height="24"/>
    <rect x="1070" y="8" width="30" height="24"/>
    <rect x="1120" y="8" width="30" height="24"/>
  </g>
  <rect x="0" y="590" width="1200" height="40" fill="#111"/>
  <g fill="#222">
    <rect x="20" y="598" width="30" height="24"/>
    <rect x="70" y="598" width="30" height="24"/>
    <rect x="120" y="598" width="30" height="24"/>
    <rect x="170" y="598" width="30" height="24"/>
    <rect x="220" y="598" width="30" height="24"/>
    <rect x="270" y="598" width="30" height="24"/>
    <rect x="870" y="598" width="30" height="24"/>
    <rect x="920" y="598" width="30" height="24"/>
    <rect x="970" y="598" width="30" height="24"/>
    <rect x="1020" y="598" width="30" height="24"/>
    <rect x="1070" y="598" width="30" height="24"/>
    <rect x="1120" y="598" width="30" height="24"/>
  </g>

  <!-- Genre cards -->
  <rect x="150" y="200" width="200" height="220" rx="15" fill="#1a1a2e" stroke="#e74c3c" stroke-width="2"/>
  <rect x="150" y="200" width="200" height="4" fill="#e74c3c"/>
  <text x="250" y="280" text-anchor="middle" font-size="60">🎵</text>
  <text x="250" y="320" text-anchor="middle" font-family="sans-serif" font-size="12" fill="#666" letter-spacing="2">GENRE 1</text>
  <text x="250" y="370" text-anchor="middle" font-family="Impact, sans-serif" font-size="36" fill="#e74c3c" letter-spacing="2">MUSICAL</text>

  <!-- Plus sign -->
  <text x="430" y="330" text-anchor="middle" font-family="Impact, sans-serif" font-size="72" fill="#f39c12" filter="url(#glow)">+</text>

  <rect x="510" y="200" width="200" height="220" rx="15" fill="#1a1a2e" stroke="#9b59b6" stroke-width="2"/>
  <rect x="510" y="200" width="200" height="4" fill="#9b59b6"/>
  <text x="610" y="280" text-anchor="middle" font-size="60">🔪</text>
  <text x="610" y="320" text-anchor="middle" font-family="sans-serif" font-size="12" fill="#666" letter-spacing="2">GENRE 2</text>
  <text x="610" y="370" text-anchor="middle" font-family="Impact, sans-serif" font-size="36" fill="#9b59b6" letter-spacing="2">SLASHER</text>

  <!-- Equals -->
  <text x="790" y="330" text-anchor="middle" font-family="Impact, sans-serif" font-size="72" fill="#f39c12" filter="url(#glow)">=</text>

  <!-- Result card -->
  <rect x="870" y="200" width="260" height="220" rx="15" fill="#111" stroke="#333" stroke-width="2"/>
  <text x="1000" y="280" text-anchor="middle" font-size="40">🎬</text>
  <text x="1000" y="330" text-anchor="middle" font-family="Impact, sans-serif" font-size="24" fill="#f39c12" letter-spacing="1">BLOODY</text>
  <text x="1000" y="365" text-anchor="middle" font-family="Impact, sans-serif" font-size="24" fill="#e74c3c" letter-spacing="1">SHOWDOWN</text>
  <text x="1000" y="405" text-anchor="middle" font-family="sans-serif" font-size="12" fill="#666" font-style="italic">"They sang. They slayed."</text>

  <!-- Title -->
  <text x="600" y="120" text-anchor="middle" font-family="Impact, sans-serif" font-size="80" fill="url(#titleGrad)" letter-spacing="8" filter="url(#glow)">TROPE MIXER</text>

  <!-- Subtitle -->
  <text x="600" y="520" text-anchor="middle" font-family="sans-serif" font-size="22" fill="#888" letter-spacing="4">MASHUP MOVIE MADNESS</text>

  <!-- Extra emojis -->
  <text x="350" y="500" font-size="40" opacity="0.5">🎭</text>
  <text x="850" y="500" font-size="40" opacity="0.5">🍿</text>
</svg>
