<svg xmlns="http://www.w3.org/2000/svg" viewBox="0 0 1200 630">
  <defs>
    <linearGradient id="sky" x1="0" y1="0" x2="1" y2="1">
      <stop offset="0" stop-color="#7fd7ff" />
      <stop offset="1" stop-color="#fdda42" />
    </linearGradient>
  </defs>
  <rect width="1200" height="630" fill="url(#sky)" />
  <g opacity="0.4">
    <rect x="120" y="340" width="320" height="220" fill="#f49ac2" rx="28" />
    <rect x="180" y="380" width="220" height="160" fill="#fff8d6" rx="18" />
    <rect x="210" y="410" width="60" height="60" fill="#1f1f1f" />
    <rect x="310" y="410" width="60" height="60" fill="#1f1f1f" />
  </g>
  <g transform="translate(640 320)">
    <rect x="-360" y="140" width="720" height="140" fill="#44424a" rx="24" />
    <rect x="-360" y="90" width="720" height="30" fill="#d4d0d0" />
    <g fill="#a6d96a">
      <circle cx="-260" cy="60" r="60" />
      <circle cx="-120" cy="70" r="72" />
      <circle cx="80" cy="60" r="60" />
      <circle cx="220" cy="70" r="64" />
    </g>
    <g fill="#fcbf49">
      <rect x="-260" y="-120" width="120" height="200" rx="18" />
      <rect x="40" y="-140" width="150" height="220" rx="18" />
    </g>
    <g fill="#f77f00">
      <rect x="-80" y="-100" width="120" height="140" rx="16" />
      <rect x="180" y="-100" width="100" height="180" rx="16" />
    </g>
    <path d="M-160 120 L-90 -40 H130 L210 120 Z" fill="#ff6b6b" />
    <rect x="-120" y="-10" width="60" height="50" rx="10" fill="#87ceeb" />
    <rect x="40" y="-10" width="60" height="50" rx="10" fill="#87ceeb" />
  </g>
  <g font-family="'Chakra Petch', 'Inter', sans-serif" text-anchor="start">
    <text x="120" y="160" fill="#101222" font-size="24" letter-spacing="0.4em">SPRINGFIELD ROAD RUSH</text>
    <text x="120" y="240" fill="#101222" font-size="90" font-weight="700" letter-spacing="0.08em">SIMPSONS ROAD RAGE VIBES</text>
    <text x="120" y="310" fill="#ff6b6b" font-size="40" letter-spacing="0.2em">DRIFT · DELIVER · DODGE</text>
    <text x="120" y="360" fill="#101222" font-size="28" letter-spacing="0.05em">Handmade textures, donut pickups, and blocky Springfield landmarks in a Three.js drive.</text>
  </g>
</svg>
