<svg xmlns="http://www.w3.org/2000/svg" viewBox="0 0 1200 630">
  <defs>
    <linearGradient id="sky" x1="0" y1="0" x2="1" y2="1">
      <stop offset="0" stop-color="#09132e" />
      <stop offset="1" stop-color="#18213e" />
    </linearGradient>
    <linearGradient id="sun" x1="0" y1="0" x2="0" y2="1">
      <stop offset="0" stop-color="#ffd34f" stop-opacity="0.95" />
      <stop offset="1" stop-color="#ff9f45" stop-opacity="0.7" />
    </linearGradient>
  </defs>
  <rect width="1200" height="630" fill="url(#sky)" />
  <g opacity="0.35" stroke="#2f4068" stroke-width="6">
    <line x1="0" y1="520" x2="1200" y2="520" />
    <line x1="0" y1="440" x2="1200" y2="440" />
    <line x1="0" y1="360" x2="1200" y2="360" />
  </g>
  <circle cx="900" cy="160" r="90" fill="url(#sun)" opacity="0.85" />
  <g transform="translate(160 200)">
    <rect x="0" y="180" width="280" height="160" fill="#3c4c7a" rx="24" />
    <rect x="30" y="220" width="220" height="120" fill="#6074ad" rx="18" />
    <rect x="60" y="250" width="60" height="60" fill="#212b4c" />
    <rect x="150" y="250" width="60" height="60" fill="#212b4c" />
    <path d="M20 180 L140 60 L260 180 Z" fill="#73c851" />
    <path d="M70 120 L140 40 L210 120 Z" fill="#ffd34f" opacity="0.9" />
  </g>
  <g transform="translate(720 260)">
    <path d="M-200 160 L-60 0 L80 160 Z" fill="#73c851" opacity="0.85" />
    <path d="M-140 110 L-60 20 L20 110 Z" fill="#ffd34f" opacity="0.8" />
    <rect x="-100" y="160" width="80" height="90" fill="#36477a" rx="12" />
    <rect x="-80" y="180" width="20" height="30" fill="#1e2848" />
    <rect x="-40" y="180" width="20" height="30" fill="#1e2848" />
  </g>
  <g font-family="'Chakra Petch', 'Inter', sans-serif" text-anchor="start">
    <text x="160" y="140" fill="#ffd34f" font-size="24" letter-spacing="0.4em">EGGCRAFT</text>
    <text x="160" y="210" fill="#f5f6ff" font-size="96" font-weight="700" letter-spacing="0.08em">MINI VOXEL SANDBOX</text>
    <text x="160" y="280" fill="#73c851" font-size="36" letter-spacing="0.24em">BUILD · MINE · EXPLORE</text>
    <text x="160" y="340" fill="rgba(245,246,255,0.8)" font-size="28" letter-spacing="0.05em">Custom Three.js experience with handmade textures — no mods, no noise, just Eggman frontier vibes.</text>
  </g>
</svg>
