<svg xmlns="http://www.w3.org/2000/svg" viewBox="0 0 1200 630">
  <defs>
    <linearGradient id="sky" x1="0" y1="0" x2="1" y2="1">
      <stop offset="0" stop-color="#3bd6ff" />
      <stop offset="1" stop-color="#ffe066" />
    </linearGradient>
  </defs>
  <rect width="1200" height="630" fill="url(#sky)" />
  <g opacity="0.5">
    <circle cx="200" cy="440" r="120" fill="#f7d58b" />
    <circle cx="360" cy="420" r="140" fill="#f0c97a" />
    <circle cx="520" cy="460" r="120" fill="#f7d58b" />
  </g>
  <g transform="translate(660 300)">
    <rect x="-360" y="140" width="720" height="140" fill="#f7d58b" rx="40" />
    <rect x="-220" y="20" width="130" height="180" rx="18" fill="#ffa94d" />
    <rect x="-40" y="-10" width="160" height="220" rx="16" fill="#ffed63" />
    <rect x="-40" y="90" width="160" height="80" fill="#8b4513" />
    <rect x="-10" y="30" width="40" height="50" fill="#ffffff" />
    <rect x="50" y="30" width="40" height="50" fill="#ffffff" />
    <rect x="10" y="90" width="60" height="16" fill="#f03a3a" />
    <rect x="220" y="0" width="140" height="160" rx="18" fill="#f7a6b2" />
    <rect x="220" y="-80" width="100" height="100" rx="30" fill="#364d79" />
  </g>
  <g font-family="'Chakra Petch', 'Inter', sans-serif" text-anchor="start">
    <text x="120" y="160" fill="#0a1436" font-size="24" letter-spacing="0.36em">BIKINI BOTTOM BRAWL</text>
    <text x="120" y="240" fill="#0a1436" font-size="94" font-weight="700" letter-spacing="0.08em">SPONGEBOB MINI ADVENTURE</text>
    <text x="120" y="310" fill="#f03a3a" font-size="42" letter-spacing="0.24em">COLLECT · DODGE · DASH</text>
    <text x="120" y="360" fill="#0a1436" font-size="30" letter-spacing="0.05em">Handmade Three.js textures, Jellyfish pickups, and evil robots — no sound, pure fun.</text>
  </g>
</svg>
